<svg width="33" height="32" viewBox="0 0 33 32" fill="none" xmlns="http://www.w3.org/2000/svg">
<g clip-path="url(#clip0_1128_5379)">
<path d="M32.1001 25.145H30.5801V26.665H32.1001V25.145Z" fill="#fff"/>
<path d="M32.1001 14.475V11.425H30.5801V12.955H29.0501V9.90503H27.5301V16.005H26.0001V14.475H24.4801V17.525H27.5301V22.095H19.9101V23.625H32.1001V22.095H29.0501V14.475H32.1001Z" fill="#fff"/>
<path d="M32.1001 0.765015H29.0501V2.28501H32.1001V0.765015Z" fill="#fff"/>
<path d="M27.5301 25.145H26.0001V26.665H27.5301V25.145Z" fill="#fff"/>
<path d="M27.5301 3.815H24.4801V5.335H27.5301V3.815Z" fill="#fff"/>
<path d="M21.4301 25.145H19.9101V26.665H21.4301V25.145Z" fill="#fff"/>
<path d="M19.9101 9.90502H15.3401V11.425H19.9101V12.955H21.4301V5.33502H19.9101V9.90502Z" fill="#fff"/>
<path d="M13.8101 16.005H10.7701V17.525H13.8101V19.045H10.7701V17.525H9.24011V23.625H13.8101V25.145H9.24011V26.665H4.6701V28.2H6.2001V31.24H9.24011V29.72H7.7201V28.2H12.2901V26.67H13.8101V28.2H16.8601V26.67H15.3401V20.58H16.8601V22.1H18.3901V19.05H15.3401V14.48H19.9101V12.96H13.8101V16.005ZM13.8101 22.095H10.7701V20.575H13.8101V22.095Z" fill="#fff"/>
<path d="M13.8101 0.765015H10.7701V2.28501H13.8101V0.765015Z" fill="#fff"/>
<path d="M10.7701 6.85504H9.24011V9.90504H10.7701V6.85504Z" fill="#fff"/>
<path d="M19.9101 3.815H7.72009V5.335H19.9101V3.815Z" fill="#fff"/>
<path d="M9.24009 23.625H7.72009V25.145H9.24009V23.625Z" fill="#fff"/>
<path d="M7.72007 5.33502H6.20007V16.005H7.72007V5.33502Z" fill="#fff"/>
<path d="M6.2001 16.005H4.6701V20.575H6.2001V16.005Z" fill="#fff"/>
<path d="M4.67009 25.145H3.15009V26.665H4.67009V25.145Z" fill="#fff"/>
<path d="M4.67009 20.575H3.15009V22.095H4.67009V20.575Z" fill="#fff"/>
<path d="M3.15012 23.625H1.62012V25.145H3.15012V23.625Z" fill="#fff"/>
<path d="M3.1501 5.33502H0.100098V6.85502H3.1501V5.33502Z" fill="#fff"/>
<path d="M1.6201 20.575H3.1501V19.045H1.6201V17.525H0.100098V23.625H1.6201V20.575Z" fill="#fff"/>
</g>
<defs>
<clipPath id="clip0_1128_5379">
<rect width="32" height="32" fill="white" transform="translate(0.100098)"/>
</clipPath>
</defs>
</svg>
