<svg xmlns="http://www.w3.org/2000/svg" width="648" height="294" viewBox="0 0 648 294"><rect width="100%" height="100%" fill="#DDDDDD"/><path fill="#999999" d="m168.705 115.91-18.44 22.58-2.15 2.66q1.8-.9 3.89-1.39 2.08-.5 4.49-.5 3.53 0 6.86 1.16 3.33 1.16 5.87 3.51 2.54 2.34 4.09 5.82 1.54 3.49 1.54 8.13 0 4.34-1.59 8.15-1.59 3.8-4.47 6.64t-6.94 4.47q-4.07 1.64-8.97 1.64-4.99 0-8.94-1.59-3.96-1.59-6.75-4.45-2.8-2.86-4.28-6.88-1.49-4.02-1.49-8.93 0-4.38 1.79-9 1.78-4.63 5.52-9.62l14.84-19.9q.77-1.04 2.26-1.77 1.48-.73 3.41-.73h9.46Zm-16.03 54.18q2.53 0 4.66-.86 2.13-.86 3.66-2.41 1.52-1.54 2.38-3.63.86-2.09.86-4.54 0-2.66-.81-4.79-.82-2.13-2.33-3.61-1.5-1.49-3.61-2.26-2.11-.77-4.64-.77-2.54 0-4.6.86-2.07.86-3.53 2.38-1.46 1.53-2.28 3.61-.82 2.09-.82 4.5 0 2.58.71 4.71.71 2.12 2.11 3.63 1.4 1.5 3.46 2.34 2.07.84 4.78.84Zm36.72-15.44h18.92v-20.33q0-2.89.38-6.37l-19.3 26.7Zm28.16 0h7.83v6.15q0 .86-.56 1.49-.56.62-1.59.62h-5.68v15.18h-9.24v-15.18h-26.23q-1.08 0-1.89-.67-.82-.66-1.04-1.65l-1.11-5.38 29.45-39.34h10.06v38.78Zm34.96 15.83q2.62 0 4.6-.75 1.98-.76 3.34-2.09 1.35-1.33 2.04-3.18t.69-4q0-5.12-2.84-7.74t-7.83-2.62q-4.99 0-7.82 2.62-2.84 2.62-2.84 7.74 0 2.15.69 4 .68 1.85 2.04 3.18 1.35 1.33 3.33 2.09 1.98.75 4.6.75Zm0-47.26q-2.36 0-4.08.73-1.72.73-2.86 1.96-1.14 1.22-1.68 2.82-.54 1.59-.54 3.35 0 1.85.45 3.59.46 1.74 1.53 3.1 1.08 1.35 2.84 2.17 1.76.81 4.34.81t4.34-.81q1.77-.82 2.84-2.17 1.08-1.36 1.53-3.1.45-1.74.45-3.59 0-1.76-.56-3.35-.56-1.6-1.68-2.82-1.11-1.23-2.83-1.96t-4.09-.73Zm10.49 22.45q5.68 1.85 8.39 5.65 2.71 3.81 2.71 9.31 0 4.13-1.57 7.48-1.57 3.36-4.41 5.72-2.84 2.37-6.81 3.66-3.98 1.29-8.8 1.29-4.81 0-8.79-1.29-3.98-1.29-6.82-3.66-2.84-2.36-4.4-5.72-1.57-3.35-1.57-7.48 0-5.5 2.7-9.31 2.71-3.8 8.39-5.65-4.52-1.89-6.77-5.38-2.26-3.48-2.26-8.38 0-3.53 1.44-6.58 1.44-3.05 4.02-5.31 2.58-2.26 6.17-3.53t7.89-1.27q4.3 0 7.89 1.27t6.17 3.53q2.58 2.26 4.02 5.31 1.44 3.05 1.44 6.58 0 4.9-2.25 8.38-2.26 3.49-6.78 5.38Zm80.59 18.19-5.64 5.54-14.57-14.57-14.71 14.66-5.63-5.55 14.7-14.75-14.02-14.01 5.59-5.59 14.02 14.01 13.93-13.93 5.68 5.59-13.97 13.98 14.62 14.62Zm51.77 4.34h15.95q1.72 0 2.73.97 1.01.96 1.01 2.56v6.36h-42.65v-3.53q0-1.07.45-2.25.45-1.19 1.44-2.13l18.88-18.92q2.36-2.41 4.23-4.6 1.87-2.2 3.12-4.35 1.24-2.15 1.91-4.36.67-2.22.67-4.67 0-2.23-.65-3.93-.64-1.7-1.82-2.86-1.19-1.16-2.84-1.74-1.66-.58-3.72-.58-1.89 0-3.51.54-1.61.53-2.86 1.5-1.24.97-2.1 2.26-.86 1.29-1.29 2.84-.73 1.97-1.9 2.62-1.16.64-3.35.3l-5.59-.99q.65-4.47 2.49-7.85 1.85-3.37 4.63-5.63 2.77-2.26 6.36-3.4 3.59-1.14 7.72-1.14 4.3 0 7.87 1.27 3.57 1.27 6.1 3.59 2.54 2.32 3.96 5.59t1.42 7.27q0 3.44-1.01 6.36-1.01 2.93-2.71 5.59-1.7 2.67-3.98 5.16-2.28 2.5-4.77 5.08l-14.02 14.32q2.02-.61 4.02-.93 2-.32 3.81-.32Zm37.84-33.63q0 5.21 2.69 7.94 2.68 2.73 7.63 2.73 2.58 0 4.6-.82 2.02-.82 3.4-2.24 1.37-1.41 2.08-3.35.71-1.93.71-4.17 0-2.54-.77-4.54-.78-2-2.2-3.37-1.42-1.38-3.37-2.11-1.96-.73-4.28-.73-2.41 0-4.34.8-1.94.79-3.31 2.21-1.38 1.42-2.11 3.38-.73 1.95-.73 4.27Zm-5.21 43.52 19.31-24.12q.73-.91 1.38-1.77.64-.86 1.24-1.72-2.15 1.38-4.73 2.09-2.58.71-5.41.71-3.23 0-6.32-1.12-3.1-1.12-5.51-3.37-2.41-2.26-3.89-5.59-1.48-3.34-1.48-7.81 0-4.17 1.54-7.83 1.55-3.65 4.35-6.4 2.79-2.75 6.71-4.35 3.91-1.59 8.64-1.59 4.77 0 8.58 1.51 3.8 1.5 6.49 4.21 2.69 2.71 4.13 6.5 1.44 3.78 1.44 8.29 0 2.89-.5 5.47-.49 2.58-1.39 4.96-.91 2.39-2.2 4.67t-2.88 4.51l-14.23 20.3q-.73 1.03-2.19 1.74-1.47.71-3.31.71h-9.77Zm52.59-23.44h18.92v-20.33q0-2.89.39-6.37l-19.31 26.7Zm28.17 0h7.82v6.15q0 .86-.55 1.49-.56.62-1.6.62h-5.67v15.18h-9.25v-15.18h-26.23q-1.07 0-1.89-.67-.82-.66-1.03-1.65l-1.12-5.38 29.46-39.34h10.06v38.78Z"/></svg>